<?xml version="1.0" encoding="UTF-8" standalone="no"?>
<!-- Created with Inkscape (http://www.inkscape.org/) -->

<svg
   version="1.1"
   id="svg1"
   width="378.59399"
   height="247.464"
   viewBox="0 0 378.594 247.464"
   sodipodi:docname="spb-most.svg"
   inkscape:version="1.3.2 (091e20e, 2023-11-25, custom)"
   xmlns:inkscape="http://www.inkscape.org/namespaces/inkscape"
   xmlns:sodipodi="http://sodipodi.sourceforge.net/DTD/sodipodi-0.dtd"
   xmlns="http://www.w3.org/2000/svg"
   xmlns:svg="http://www.w3.org/2000/svg">
  <defs
     id="defs1" />
  <sodipodi:namedview
     id="namedview1"
     pagecolor="#ffffff"
     bordercolor="#000000"
     borderopacity="0.25"
     inkscape:showpageshadow="2"
     inkscape:pageopacity="0.0"
     inkscape:pagecheckerboard="0"
     inkscape:deskcolor="#d1d1d1"
     inkscape:zoom="1.0476333"
     inkscape:cx="1.9090649"
     inkscape:cy="113.58936"
     inkscape:window-width="1013"
     inkscape:window-height="1020"
     inkscape:window-x="839"
     inkscape:window-y="149"
     inkscape:window-maximized="0"
     inkscape:current-layer="g1" />
  <g
     inkscape:groupmode="layer"
     inkscape:label="Image"
     id="g1"
     transform="translate(-78.119597,-143.90065)">
    <path
       id="path1"
       style="opacity:1;fill:#ff6600;fill-opacity:1;stroke:#cccccc;stroke-opacity:0"
       d="m 271.83415,156.88353 -2.88281,0.41016 -8.23633,115.64453 -4.03711,3.3789 v 47.9375 l -10.04883,1.8125 -0.57617,27.34571 -42.41992,-5.02539 2.30664,-67.78711 1.1543,-5.6836 9.88281,-24.29883 11.20313,-28.00586 1.97656,-11.44921 0.82422,-9.63672 -1.89453,-4.20117 -1.89454,-3.95313 -21.99218,-18.7793 h -2.38867 l -1.40039,0.41016 v 1.64844 l 3.21093,2.96484 v 2.4707 2.30665 l 0.41211,1.07031 1.56641,0.57812 1.72851,-0.084 13.34375,11.12109 -40.35937,0.98828 -7.08399,-8.15429 v -4.94336 h -1.73046 l -3.45899,-1.07032 -2.55273,-1.15234 -9.88477,-10.04883 -2.22461,2.96485 3.70703,6.58984 -0.41211,1.72852 0.82422,2.63671 2.22461,1.31836 8.23633,2.88282 1.97656,1.07031 0.57617,8.1543 -1.07031,3.37695 -5.60156,10.46094 -8.54688,17.87109 -7.45507,16.77344 -12.8125,26.67578 -9.78516,21.54883 -11.88086,24.58008 -6.64062,14.67578 -3.37695,7.33984 -4.07813,7.2207 -3.960935,5.24219 -3.958984,5.47461 -0.34961,18.98828 354.349609,-0.69922 0.23242,-30.63672 -15.27539,-4.2539 -64.2461,-143.48633 -0.084,-10.04883 9.06055,-3.1289 3.37695,-0.90626 1.56641,-0.82421 v -1.97657 l -1.23633,-1.97656 4.69531,-6.67187 -2.80078,-2.71875 -8.56641,9.14257 -8.15429,2.71875 v 4.85938 l -5.92969,7.9082 -33.27735,-0.082 12.68555,-11.5332 4.44727,-0.41016 -0.33008,-6.58984 3.37695,-4.11914 -4.2832,-0.082 -22.81641,19.1914 -1.81054,4.69532 -0.16602,5.92968 1.73047,15.81446 2.63476,5.93164 19.43946,48.67968 6.34179,68.03516 h -1.81054 l -3.04883,-0.90625 -5.35352,-10.95508 -30.55859,19.76953 -7.00195,1.15235 -3.12891,-26.10938 -9.9668,-3.29492 -1.15234,-48.51563 -10.54297,-24.05078 z m 115.09961,96.82617 6.99024,14.26953 -5.65039,-0.46679 -4.31055,-10.77344 z m -245.65234,22.60742 -0.33008,9.80078 -22.56836,50.24414 -3.45898,0.24805 -0.49414,-1.23633 z m 255.61328,0.63086 7.97852,16.36719 -4.83399,0.17383 -5.18359,-12.34766 z m -121.68359,12.62891 h 4.36523 l -0.082,28.5 -4.11719,-1.48242 z m -134.42383,6.83789 -1.23633,14.66016 -15.48438,35.58398 -2.55468,1.97656 -0.49414,-5.60156 z m 269.01367,9.71875 17.05078,36.07812 -5.18945,-0.33007 -15.89649,-35.5 z m -60.29297,10.13086 5.92969,3.625 1.56445,14.9082 -6.42383,-0.33008 z" />
  </g>
</svg>
