<?xml version="1.0" encoding="UTF-8" standalone="no"?>
<!-- Created with Inkscape (http://www.inkscape.org/) -->

<svg
   width="120mm"
   height="27mm"
   viewBox="0 0 119.99999 26.999998"
   version="1.1"
   id="svg1"
   xml:space="preserve"
   inkscape:version="1.3.2 (091e20e, 2023-11-25, custom)"
   sodipodi:docname="karlmaps.svg"
   xmlns:inkscape="http://www.inkscape.org/namespaces/inkscape"
   xmlns:sodipodi="http://sodipodi.sourceforge.net/DTD/sodipodi-0.dtd"
   xmlns="http://www.w3.org/2000/svg"
   xmlns:svg="http://www.w3.org/2000/svg"><sodipodi:namedview
     id="namedview1"
     pagecolor="#ffffff"
     bordercolor="#000000"
     borderopacity="0"
     inkscape:showpageshadow="2"
     inkscape:pageopacity="0.0"
     inkscape:pagecheckerboard="0"
     inkscape:deskcolor="#d1d1d1"
     inkscape:document-units="mm"
     inkscape:zoom="2"
     inkscape:cx="220"
     inkscape:cy="81.25"
     inkscape:window-width="1450"
     inkscape:window-height="981"
     inkscape:window-x="349"
     inkscape:window-y="193"
     inkscape:window-maximized="0"
     inkscape:current-layer="layer1" /><defs
     id="defs1"><rect
       x="218.86967"
       y="395.84348"
       width="324.33163"
       height="96.793846"
       id="rect1" /></defs><g
     inkscape:label="Layer 1"
     inkscape:groupmode="layer"
     id="layer1"><text
       xml:space="preserve"
       transform="matrix(2.1166666,0,0,2.1166666,-434.30022,-839.20883)"
       id="text1"
       style="font-style:normal;font-variant:normal;font-weight:normal;font-stretch:normal;font-size:12px;font-family:Haettenschweiler;-inkscape-font-specification:'Haettenschweiler, Normal';font-variant-ligatures:normal;font-variant-position:normal;font-variant-caps:normal;font-variant-numeric:normal;font-variant-east-asian:normal;white-space:pre;shape-inside:url(#rect1);display:inline;fill:#ff0000"><tspan
         x="218.86914"
         y="407.58661"
         id="tspan1">KARL MAPS</tspan></text><path
       style="fill:#ffcc00;stroke-width:0.252029"
       d="m 22.522285,19.225 3.143508,3.15057 0.132265,0.15454 0.114166,0.18517 0.08076,0.17404 0.071,0.22972 0.03759,0.17682 0.0028,0.18795 -0.0181,0.19492 -0.06266,0.2534 -0.09746,0.2339 -0.15315,0.24086 -0.222764,0.21999 c 0,0 0.07518,-0.0473 -0.0905,0.0669 -0.165682,0.11417 -0.339716,0.181 -0.339716,0.181 l -0.204665,0.0515 -0.136443,0.0237 -0.180995,0.0111 -0.183782,-0.006 -0.17682,-0.0362 -0.111381,-0.039 -0.114167,-0.0446 -0.137835,-0.0682 -0.07518,-0.039 -0.09746,-0.0627 -0.148974,-0.11138 -3.460733,-3.46288 -0.08171,0.0473 -0.485352,0.23923 -0.317008,0.1398 -0.419392,0.16539 -0.472554,0.15949 -0.350477,0.10042 -0.423331,0.10632 -0.476494,0.0925 -0.362293,0.0611 -0.287469,0.0354 -0.265813,0.0236 -0.317005,0.0157 -0.362292,0.002 -0.332756,0.004 -0.322914,-0.0177 -0.234308,-0.0216 -0.352448,-0.0433 -0.456803,-0.0808 -0.220526,-0.0531 -0.299285,-0.0729 L 12.99933,21.91517 12.640977,21.80096 12.341692,21.6966 11.910485,21.52333 11.441867,21.30281 10.86299,20.98384 10.589301,20.81057 10.356963,20.66289 10.093118,20.47387 9.7761117,20.2376 9.4748587,19.98951 9.2700857,19.8182 l -0.185086,-0.17327 -0.100418,-0.0886 -0.03347,0.0807 -0.05907,0.15358 -0.116171,0.19296 -0.104355,0.13587 -0.153581,0.15161 -0.167363,0.12602 -0.19099,0.10238 -0.179178,0.067 -0.19099,0.0531 -0.192962,0.0177 h -0.0315 l -0.175238,0.32292 -0.358355,0.60448 -0.311098,0.47845 -0.383952,0.52966 -0.456802,0.5651 -0.2795937,0.30519 -0.389859,0.39774 -0.313068,0.26974 -0.36623,0.29141 -0.370167,0.25006 c 0,0 -0.460742,0.29338 -0.82894,0.30717 -0.368199,0.0138 -0.576913,-0.065 -0.576913,-0.065 0,0 -0.492243,-0.12601 -0.805311,-0.59068 C 1.636357,23.8388 1.695427,23.3249 1.695427,23.3249 c 0,0 -0.03938,-0.27172 0.348509,-0.88998 0.387888,-0.61826 0.954955,-1.18532 0.954955,-1.18532 l 0.521781,-0.47847 0.490274,-0.3997 0.604478,-0.44105 0.67142,-0.42924 0.7167087,-0.41348 c 0,0 -0.0039,-0.35442 0.246122,-0.78169 0.250061,-0.42726 0.767902,-0.6025 0.767902,-0.6025 l 0.189023,-0.0611 0.185082,-0.0295 0.226433,-0.002 0.210682,0.0354 0.114199,0.0275 c 0,0 0.257937,-0.36032 0.592663,-0.37608 0.334727,-0.0157 0.604477,0.22053 0.604477,0.22053 l 0.54148,-0.53161 0.3583523,0.36622 0.418411,0.35934 0.536547,0.39479 0.450894,0.26974 0.462711,0.24022 0.30716,0.13586 0.297315,0.12208 0.248092,0.0866 0.334725,0.0984 0.291409,0.069 0.307161,0.0511 0.226433,0.0334 0.257937,0.0236 0.23037,0.0138 0.332757,0.004 0.194929,-0.002 0.287472,-0.008 0.320942,-0.0256 0.338664,-0.0472 c 0,0 0.244154,-0.0393 0.244154,-0.0315 0,0.008 0.417423,-0.0925 0.417423,-0.0925 l 0.46665,-0.11814 0.3997,-0.12602 0.285505,-0.1142 -8.4981133,-8.481379 -2.698485,2.696529 -2.9583897,-2.9583895 5.6613307,-5.66134 5.3726493,0.5317 -3.239831,3.23983 8.878928,8.8789295 0.01795,-0.009 0.06202,-0.067 0.237263,-0.28747 0.175238,-0.23234 0.171303,-0.2284 0.255965,-0.43908 0.149642,-0.26778 0.112232,-0.24809 0.08664,-0.20084 0.118139,-0.30716 0.127985,-0.4253 0.05907,-0.23628 0.06301,-0.32291 0.03741,-0.24809 0.02165,-0.19887 0.01968,-0.29732 0.002,-0.21461 -0.0059,-0.27369 -0.02165,-0.30519 -0.04332,-0.34851 -0.05316,-0.34654 -0.06695,-0.34655 -0.102387,-0.4371 -0.129951,-0.405619 -0.145706,-0.4686205 -0.145703,-0.34259 -0.118138,-0.2796 -0.15949,-0.3682 -0.155547,-0.30716 -0.145706,-0.2855 -0.11223,-0.20084 -0.149643,-0.26384 -0.147674,-0.25203 -0.177207,-0.29732 -0.183117,-0.2914 -0.189021,-0.27369 -0.149643,-0.21856 -0.194927,-0.27565 -0.189022,-0.25795 -0.283533,-0.37016 -0.285504,-0.35245 -0.19099,-0.23037 -0.185083,-0.21659 -0.190993,-0.22643 -0.200834,-0.23431 -0.228402,-0.25892 -0.174256,-0.18803 -0.332757,-0.35048 -0.213634,-0.22545 -0.263843,-0.27369 -0.254982,-0.25302 -0.320945,-0.31405 -0.37509,-0.34162 -0.267781,-0.25005 -0.308144,-0.27173 -0.312085,-0.27073 -0.224502,-0.1929 -0.223479,-0.18213002 -0.284519,-0.23333 -0.08959,-0.0679 0.17327,0.0797 c 0,0 8.000944,3.41914002 10.347967,9.26307002 2.347022,5.8439295 -1.934522,9.3260595 -1.934522,9.3260595 z"
       id="path23" /></g></svg>
