<?xml version="1.0" encoding="UTF-8" standalone="no"?>
<!-- Created with Inkscape (http://www.inkscape.org/) -->

<svg
   version="1.1"
   id="svg1"
   width="156.19"
   height="284.86301"
   viewBox="0 0 156.19001 284.863"
   sodipodi:docname="volgograd-rodina-mat.svg"
   inkscape:version="1.3.2 (091e20e, 2023-11-25, custom)"
   xmlns:inkscape="http://www.inkscape.org/namespaces/inkscape"
   xmlns:sodipodi="http://sodipodi.sourceforge.net/DTD/sodipodi-0.dtd"
   xmlns="http://www.w3.org/2000/svg"
   xmlns:svg="http://www.w3.org/2000/svg">
  <defs
     id="defs1" />
  <sodipodi:namedview
     id="namedview1"
     pagecolor="#ffffff"
     bordercolor="#000000"
     borderopacity="0.25"
     inkscape:showpageshadow="2"
     inkscape:pageopacity="0.0"
     inkscape:pagecheckerboard="0"
     inkscape:deskcolor="#d1d1d1"
     inkscape:zoom="1.671875"
     inkscape:cx="-86.728972"
     inkscape:cy="157.60748"
     inkscape:window-width="1920"
     inkscape:window-height="991"
     inkscape:window-x="-9"
     inkscape:window-y="-9"
     inkscape:window-maximized="1"
     inkscape:current-layer="g1" />
  <g
     inkscape:groupmode="layer"
     inkscape:label="Image"
     id="g1"
     transform="translate(-908.40316,-511.84221)">
    <path
       style="fill:#ff6600;stroke:#cccccc;stroke-opacity:0;fill-opacity:1"
       d="m 1040.9907,784.20561 h 13.757 l 0.1495,5.98131 H 949.02804 l 0.14953,-6.72897 10.46729,0.44859 11.66355,-11.51401 c 0,0 4.48598,-13.75701 -0.59813,-33.04673 -5.08411,-19.28972 -8.82243,-26.46729 -8.82243,-26.46729 l -5.08411,-13.75701 -2.09346,-6.57944 -7.02804,-17.94393 -0.44859,-3.88785 1.04673,-9.12149 -0.4486,-10.76636 -3.6164,-9.80212 -4.54663,-3.38354 -3.27781,-2.9606 -3.38354,-4.33516 -2.43191,-3.48927 -1.79751,-4.22942 -1.42743,-3.64788 -2.74912,-4.4409 -1.00449,2.32619 -0.79302,1.16309 -1.05736,0.47581 h -1.42743 l -0.95162,-0.89875 -0.21147,-2.16758 -0.3172,-7.93017 0.1586,-3.48928 -2.80199,-1.11022 -1.58604,-1.05736 -0.52868,-0.89875 v -1.11022 l 0.63442,-1.21596 0.84588,-0.52868 1.21596,-0.10574 2.16758,0.10574 3.75361,0.1586 0.83453,0.23572 19.43925,-56.67289 4.63552,-13.00935 3.21495,-6.20561 1.79439,-2.01869 0.52337,0.59813 0.2243,2.46729 -1.3458,7.47664 -7.5514,23.92523 -15.40187,44.41122 2.91589,1.57009 3.28972,1.94393 1.57009,1.34579 0.59813,1.79439 -0.59813,1.42056 -0.97196,0.2243 -2.99065,-0.4486 -1.27103,-0.59813 -1.57009,0.14954 -1.04673,0.29906 0.44859,1.1215 2.24299,3.66355 4.11215,5.60747 3.96262,4.63552 2.46729,2.99065 3.58879,2.84112 3.73831,2.39253 3.06542,0.97196 2.31776,0.6729 3.21495,-0.14954 0.74767,-1.42056 0.74766,-2.84112 -0.0748,-2.61682 -1.42057,-1.71963 -2.09345,-1.94392 -1.27103,-1.86916 -0.52337,-2.31776 0.14954,-3.81308 0.44859,-3.14019 1.19627,-2.61682 2.46729,-2.46729 2.54205,-1.34579 3.36449,-1.04673 3.06542,-0.4486 3.58878,-0.14953 1.27103,0.74766 1.71963,1.34579 0.59813,1.04673 0.29906,1.04673 -3.14018,0.37383 -0.2243,0.8972 1.64486,1.94392 3.21495,1.04673 1.86916,0.97197 -0.29906,7.02803 -3.73832,0.29907 -1.04673,0.59813 -0.4486,2.39252 -0.74766,1.1215 -1.19626,1.27103 -1.42057,0.97196 0.74767,0.97196 5.75701,4.18692 5.08411,-2.01869 4.48598,-1.04673 4.63551,-0.8972 4.85982,-1.04673 8.52339,-1.57009 11.0655,-3.21495 11.514,-4.18692 8.5981,-3.28972 6.9533,-2.69159 3.8131,-1.79439 2.542,-0.74767 0.2991,0.59814 -1.4206,1.19626 -1.8691,1.42056 -0.8225,1.34579 v 0.82243 l 0.8225,0.52337 2.6916,0.37383 2.3177,-0.29907 2.243,-0.82243 2.243,-0.37383 0.2991,0.74767 -1.7197,0.97196 -2.243,1.27103 2.1683,0.52336 4.4112,-0.2243 1.4953,0.74766 0.2243,0.74767 -0.972,0.37383 -2.9906,0.59813 -4.9346,0.37383 -8.8972,0.0748 -0.9719,0.29906 -6.9533,3.36449 -8.6729,4.26168 -6.8038,2.46729 -7.5514,2.54206 -5.2337,3.43925 -3.7383,2.61682 0.075,1.27103 0.8224,2.01869 h 1.2711 l 0.7476,-0.89719 2.0188,-0.6729 h 2.1682 l 2.3177,0.4486 3.3645,1.27103 6.4299,4.26168 5.3084,2.76635 2.243,1.27103 1.1215,1.64486 0.7477,2.09346 v 1.86916 l -0.8224,1.12149 -0.2991,1.42056 -0.075,0.97197 0.8225,0.59813 0.5233,1.42056 0.2243,2.01869 -1.1215,1.27103 -1.7196,2.01869 -2.7663,1.27103 -5.5328,0.74766 -4.9345,-0.37383 -2.6169,-1.94393 -4.785,-3.66355 -5.8318,-3.66355 -4.56077,-1.49533 -2.76635,-0.14953 -1.19627,0.4486 -0.74766,0.59813 0.0748,0.8972 1.79439,0.82243 2.76635,0.52336 h 2.76641 l 1.3457,0.4486 v 1.12149 l 0.2991,2.46729 0.5234,0.74767 1.8691,0.74766 h 2.6169 l 0.8224,0.52337 0.075,1.19626 -0.8972,0.89719 -1.944,0.82243 -2.6916,0.6729 -4.11211,-0.0748 -3.06542,-0.37383 c 0,0 -2.22134,-0.30081 -3.17282,-0.85015 -0.95149,-0.54934 -2.43466,0.62585 -2.43466,0.62585 l -1.64485,2.54206 -0.74767,2.46729 2.39252,3.28972 3.66356,4.56075 3.36448,4.85981 3.43927,6.28037 3.2149,5.83178 4.0374,7.7757 3.6636,7.17757 4.0374,6.28037 6.6542,9.27103 5.757,7.92524 1.6448,2.46729 0.5982,2.69158 1.4953,5.38318 2.4673,5.38318 1.271,3.58878 0.075,3.58879 -2.0187,2.91589 -1.5701,2.39252 -0.3738,2.61682 1.3458,3.28972 z"
       id="path1" />
  </g>
</svg>
